<svg width="60" height="65" viewBox="0 0 60 65" fill="none" xmlns="http://www.w3.org/2000/svg">
<path d="M36.8942 47.2585H32.2788" stroke="#73A800" stroke-width="2" stroke-linecap="round" stroke-linejoin="round"/>
<path d="M54.0173 44.564C52.7365 45.8476 50.6712 45.8476 49.3904 44.564C48.1096 43.2803 48.1096 41.2102 49.3904 39.9265L50.9365 38.3769C52.2173 37.0932 54.2827 37.0932 55.5635 38.3769C56.8442 39.6606 56.8442 41.7306 55.5635 43.0143L54.0173 44.564Z" stroke="#73A800" stroke-width="2" stroke-linecap="round" stroke-linejoin="round"/>
<path d="M52.8635 37.0469C51.5827 38.3306 49.5173 38.3306 48.2366 37.0469C46.9558 35.7632 46.9558 33.6931 48.2366 32.4095L50.9366 29.7034C52.2173 28.4197 54.2827 28.4197 55.5635 29.7034C56.8442 30.987 56.8442 33.0571 55.5635 34.3408L52.8635 37.0469Z" stroke="#73A800" stroke-width="2" stroke-linecap="round" stroke-linejoin="round"/>
<path d="M51.7096 28.9517C50.4289 30.2354 48.3635 30.2354 47.0827 28.9517C45.802 27.668 45.802 25.598 47.0827 24.3143L50.9366 20.4517C52.2173 19.168 54.2827 19.168 55.5635 20.4517C56.8443 21.7354 56.8443 23.8055 55.5635 25.0891L51.7096 28.9517V28.9517Z" stroke="#73A800" stroke-width="2" stroke-linecap="round" stroke-linejoin="round"/>
<path d="M49.5866 19.5034L57.8596 11.2115C59.1404 9.92786 59.1404 7.85779 57.8596 6.58568C56.5789 5.31357 54.5135 5.30201 53.2442 6.58568L49.5866 10.2517" stroke="#73A800" stroke-width="2" stroke-linecap="round" stroke-linejoin="round"/>
<path d="M19.5865 35.6939C23.0365 25.3088 24.0865 16.1265 19.2981 13.351C17.8558 12.5184 16.0673 13.6054 15.9288 15.2708C15.3173 22.6605 12.6404 27.668 10.575 30.5245C8.90192 32.8374 8.05962 35.6476 8.05962 38.5041V44.4714C8.05962 45.5238 7.64423 46.5184 6.90577 47.2585" stroke="#73A800" stroke-width="2" stroke-linecap="round" stroke-linejoin="round"/>
<path d="M19.5865 35.6938V49.5714C19.5865 52.1272 21.6519 54.1973 24.2019 54.1973H44.9712C47.5212 54.1973 49.5865 52.1272 49.5865 49.5714V44.749" stroke="#73A800" stroke-width="2" stroke-linecap="round" stroke-linejoin="round"/>
<path d="M26.5096 24.1293L34.5865 17.1905L42.6635 24.1293H26.5096Z" stroke="#73A800" stroke-width="2" stroke-linecap="round" stroke-linejoin="round"/>
<path d="M42.6635 33.3809H26.5096" stroke="#73A800" stroke-width="2" stroke-linecap="round" stroke-linejoin="round"/>
<path d="M28.8173 28.7551V33.3809" stroke="#73A800" stroke-width="2" stroke-linecap="round" stroke-linejoin="round"/>
<path d="M34.5865 28.7551V33.3809" stroke="#73A800" stroke-width="2" stroke-linecap="round" stroke-linejoin="round"/>
<path d="M40.3558 28.7551V33.3809" stroke="#73A800" stroke-width="2" stroke-linecap="round" stroke-linejoin="round"/>
<path d="M34.5635 58.8232C32.4865 59.9334 30.1788 60.6967 27.7442 60.9973C26.1519 61.1939 24.6519 61.8531 23.5096 62.998L23.0481 63.4606L5.74039 46.1136L1.125 50.7395" stroke="#73A800" stroke-width="2" stroke-linecap="round" stroke-linejoin="round"/>
<path d="M49.5865 21.8163V5.62585C49.5865 3.07007 47.5212 1 44.9712 1H24.2019C21.6519 1 19.5865 3.07007 19.5865 5.62585V8.58639" stroke="#73A800" stroke-width="2" stroke-linecap="round" stroke-linejoin="round"/>
</svg>
