<svg width="37" height="29" viewBox="0 0 37 29" fill="none" xmlns="http://www.w3.org/2000/svg">
<g clip-path="url(#clip0_742_817)">
<path d="M5.74049 21.6162H1.82125C1.26791 21.6162 0.819336 22.0275 0.819336 22.5348V27.0411C0.819336 27.5485 1.26791 27.9597 1.82125 27.9597H5.74049C6.29383 27.9597 6.7424 27.5485 6.7424 27.0411V22.5348C6.7424 22.0275 6.29383 21.6162 5.74049 21.6162Z" fill="white"/>
<path d="M5.74049 21.6162H1.82125C1.26791 21.6162 0.819336 22.0275 0.819336 22.5348V27.0411C0.819336 27.5485 1.26791 27.9597 1.82125 27.9597H5.74049C6.29383 27.9597 6.7424 27.5485 6.7424 27.0411V22.5348C6.7424 22.0275 6.29383 21.6162 5.74049 21.6162Z" stroke="#414141" stroke-width="2" stroke-linejoin="round"/>
<path d="M35.179 21.6162H31.2597C30.7064 21.6162 30.2578 22.0275 30.2578 22.5348V27.0411C30.2578 27.5485 30.7064 27.9597 31.2597 27.9597H35.179C35.7323 27.9597 36.1809 27.5485 36.1809 27.0411V22.5348C36.1809 22.0275 35.7323 21.6162 35.179 21.6162Z" fill="white"/>
<path d="M35.179 21.6162H31.2597C30.7064 21.6162 30.2578 22.0275 30.2578 22.5348V27.0411C30.2578 27.5485 30.7064 27.9597 31.2597 27.9597H35.179C35.7323 27.9597 36.1809 27.5485 36.1809 27.0411V22.5348C36.1809 22.0275 35.7323 21.6162 35.179 21.6162Z" stroke="#414141" stroke-width="2" stroke-linejoin="round"/>
<path d="M36.181 24.4042V15.9102C36.181 14.8349 35.7507 13.9758 34.6368 13.2355C33.523 12.4899 33.3992 10.7122 33.3992 10.7122C34.0357 10.5663 36.069 9.96653 36.3872 9.07499C36.7055 8.18344 34.0887 7.23245 33.134 7.23245C32.2971 7.23245 31.9965 7.87545 31.9553 8.10239C30.9003 6.0059 28.8081 2.05067 27.8121 1.9372C27.8121 1.9372 25.9202 1.04565 18.5061 1.04565C11.0919 1.04565 9.20008 1.9372 9.20008 1.9372C8.20407 2.05608 6.11184 6.0113 5.05689 8.10239C5.01563 7.87545 4.70916 7.23245 3.87817 7.23245C2.9234 7.23245 0.31254 8.18344 0.6249 9.07499C0.943155 9.96653 2.97645 10.5663 3.61295 10.7122C3.61295 10.7122 3.48329 12.4953 2.3753 13.2355C1.26141 13.9812 0.831176 14.8349 0.831176 15.9102V24.4042H36.1928H36.181Z" fill="white" stroke="#414141" stroke-width="2" stroke-linejoin="round"/>
<path d="M5.99419 18.7955C4.82725 18.7955 3.88428 17.931 3.88428 16.8611C3.88428 15.7913 4.82725 14.9268 5.99419 14.9268C7.16112 14.9268 8.10409 15.7913 8.10409 16.8611C8.10409 17.931 7.16112 18.7955 5.99419 18.7955Z" fill="white" stroke="#414141" stroke-width="2" stroke-linejoin="round"/>
<path d="M33.1104 16.8611C33.1104 17.9256 32.1675 18.7955 31.0005 18.7955C29.8336 18.7955 28.8906 17.931 28.8906 16.8611C28.8906 15.7913 29.8336 14.9268 31.0005 14.9268C32.1675 14.9268 33.1104 15.7913 33.1104 16.8611Z" fill="white" stroke="#414141" stroke-width="2" stroke-linejoin="round"/>
<path d="M18.5001 10.7229H7.12549L10.1961 4.59552C11.0624 4.02817 16.6319 3.94171 18.5001 3.93091C20.3684 3.94171 25.9378 4.02817 26.8042 4.59552L29.8748 10.7229H18.5001Z" fill="white" stroke="#414141" stroke-width="2" stroke-linejoin="round"/>
</g>
<defs>
<clipPath id="clip0_742_817">
<rect width="37" height="28" fill="white" transform="translate(0 0.5)"/>
</clipPath>
</defs>
</svg>
