<svg width="63" height="69" viewBox="0 0 63 69" fill="none" xmlns="http://www.w3.org/2000/svg">
<path d="M15.5322 60.8762C20.6238 60.8762 24.7513 58.5176 24.7513 55.6081C24.7513 52.6986 20.6238 50.34 15.5322 50.34C10.4406 50.34 6.31311 52.6986 6.31311 55.6081C6.31311 58.5176 10.4406 60.8762 15.5322 60.8762Z" stroke="#73A800" stroke-width="2" stroke-linecap="round" stroke-linejoin="round"/>
<path d="M24.7513 55.6071V62.1922C24.7513 65.1028 20.6291 67.4603 15.5322 67.4603C10.4354 67.4603 6.31311 65.1028 6.31311 62.1922V55.6071" stroke="#73A800" stroke-width="2" stroke-linecap="round" stroke-linejoin="round"/>
<path d="M43.1904 49.0274C43.1904 51.938 39.0682 54.2955 33.9713 54.2955C28.8745 54.2955 24.7522 51.938 24.7522 49.0274" stroke="#73A800" stroke-width="2" stroke-linecap="round" stroke-linejoin="round"/>
<path d="M33.9713 47.7067C39.0629 47.7067 43.1904 45.3481 43.1904 42.4387C43.1904 39.5292 39.0629 37.1706 33.9713 37.1706C28.8797 37.1706 24.7522 39.5292 24.7522 42.4387C24.7522 45.3481 28.8797 47.7067 33.9713 47.7067Z" stroke="#73A800" stroke-width="2" stroke-linecap="round" stroke-linejoin="round"/>
<path d="M43.1904 55.6071C43.1904 58.5177 39.0682 60.8752 33.9713 60.8752C28.8745 60.8752 24.7522 58.5177 24.7522 55.6071" stroke="#73A800" stroke-width="2" stroke-linecap="round" stroke-linejoin="round"/>
<path d="M43.1904 42.4374V62.1926C43.1904 65.1032 39.0682 67.4607 33.9713 67.4607C28.8745 67.4607 24.7522 65.1032 24.7522 62.1926V42.4374" stroke="#73A800" stroke-width="2" stroke-linecap="round" stroke-linejoin="round"/>
<path d="M61.6286 55.6071C61.6286 58.5177 57.5064 60.8752 52.4095 60.8752C47.3127 60.8752 43.1904 58.5177 43.1904 55.6071" stroke="#73A800" stroke-width="2" stroke-linecap="round" stroke-linejoin="round"/>
<path d="M61.6286 49.0274C61.6286 51.938 57.5064 54.2955 52.4095 54.2955C47.3127 54.2955 43.1904 51.938 43.1904 49.0274" stroke="#73A800" stroke-width="2" stroke-linecap="round" stroke-linejoin="round"/>
<path d="M61.6286 42.4374C61.6286 45.348 57.5064 47.7054 52.4095 47.7054C47.3127 47.7054 43.1904 45.348 43.1904 42.4374" stroke="#73A800" stroke-width="2" stroke-linecap="round" stroke-linejoin="round"/>
<path d="M52.4095 41.1259C57.5011 41.1259 61.6286 38.7673 61.6286 35.8578C61.6286 32.9484 57.5011 30.5898 52.4095 30.5898C47.318 30.5898 43.1904 32.9484 43.1904 35.8578C43.1904 38.7673 47.318 41.1259 52.4095 41.1259Z" stroke="#73A800" stroke-width="2" stroke-linecap="round" stroke-linejoin="round"/>
<path d="M61.6286 35.8578V62.1982C61.6286 65.1088 57.5064 67.4662 52.4095 67.4662C47.3127 67.4662 43.1904 65.1088 43.1904 62.1982V35.8578" stroke="#73A800" stroke-width="2" stroke-linecap="round" stroke-linejoin="round"/>
<path d="M3.6792 9.51233H11.5813V27.9505H1.04517" stroke="#73A800" stroke-width="2" stroke-linecap="round" stroke-linejoin="round"/>
<path d="M11.5828 25.3218C15.7182 28.6539 22.3033 28.8251 26.7021 25.8355C27.1631 25.5194 27.6899 25.3218 28.243 25.3218H36.6061C38.7923 25.3218 40.5571 23.557 40.5571 21.3708C40.5571 19.1845 38.7923 17.4197 36.6061 17.4197H29.5073C27.4791 17.4197 26.2675 15.1545 27.387 13.4687" stroke="#73A800" stroke-width="2" stroke-linecap="round" stroke-linejoin="round"/>
<path d="M35.4314 25.3165C37.0909 26.9496 39.3693 27.9505 41.8717 27.9505C46.9685 27.9505 51.0908 23.8283 51.0908 18.7314C51.0908 13.6346 46.9685 9.51233 41.8717 9.51233C37.2226 9.51233 33.4032 12.9497 32.7579 17.4144" stroke="#73A800" stroke-width="2" stroke-linecap="round" stroke-linejoin="round"/>
<path d="M37.6333 10.5551L29.639 2.79784C28.3352 1.48082 26.2938 1.23059 24.7002 2.19201L11.5828 10.8316" stroke="#73A800" stroke-width="2" stroke-linecap="round" stroke-linejoin="round"/>
</svg>
