<svg width="15" height="18" viewBox="0 0 15 18" fill="none" xmlns="http://www.w3.org/2000/svg">
<path d="M12.95 0H1.23C0.55 0 0 0.55 0 1.23V12.63C0 13.31 0.55 13.86 1.23 13.86H2.44V12.1C2.44 12 2.52 11.92 2.62 11.92H11.55C11.65 11.92 11.73 12 11.73 12.1V13.86H12.94C13.62 13.86 14.17 13.31 14.17 12.63V1.23C14.17 0.55 13.62 0 12.94 0H12.95ZM6.01 9.14C6.01 9.62 5.62 10.01 5.14 10.01H2.83C2.35 10.01 1.96 9.62 1.96 9.14V2.82C1.96 2.34 2.35 1.95 2.83 1.95H5.14C5.62 1.95 6.01 2.34 6.01 2.82V9.15V9.14Z" fill="white"/>
<path d="M10.32 13.35H3.86001C3.82135 13.35 3.79001 13.3813 3.79001 13.42V14.6C3.79001 14.6386 3.82135 14.67 3.86001 14.67H10.32C10.3587 14.67 10.39 14.6386 10.39 14.6V13.42C10.39 13.3813 10.3587 13.35 10.32 13.35Z" fill="white"/>
<path d="M10.32 15.76H3.86001C3.82135 15.76 3.79001 15.7913 3.79001 15.83V17.01C3.79001 17.0487 3.82135 17.08 3.86001 17.08H10.32C10.3587 17.08 10.39 17.0487 10.39 17.01V15.83C10.39 15.7913 10.3587 15.76 10.32 15.76Z" fill="white"/>
</svg>
