<svg width="29" height="29" viewBox="0 0 29 29" fill="none" xmlns="http://www.w3.org/2000/svg">
<circle cx="14.5" cy="14.5" r="14" fill="#404040" stroke="white"/>
<path d="M14.5 11.4062C12.5 11.4062 10.9062 13.0312 10.9062 15C10.9062 17 12.5 18.5938 14.5 18.5938C16.4688 18.5938 18.0938 17 18.0938 15C18.0938 13.0312 16.4688 11.4062 14.5 11.4062ZM14.5 17.3438C13.2188 17.3438 12.1562 16.3125 12.1562 15C12.1562 13.7188 13.1875 12.6875 14.5 12.6875C15.7812 12.6875 16.8125 13.7188 16.8125 15C16.8125 16.3125 15.7812 17.3438 14.5 17.3438ZM19.0625 11.2812C19.0625 10.8125 18.6875 10.4375 18.2188 10.4375C17.75 10.4375 17.375 10.8125 17.375 11.2812C17.375 11.75 17.75 12.125 18.2188 12.125C18.6875 12.125 19.0625 11.75 19.0625 11.2812ZM21.4375 12.125C21.375 11 21.125 10 20.3125 9.1875C19.5 8.375 18.5 8.125 17.375 8.0625C16.2188 8 12.75 8 11.5938 8.0625C10.4688 8.125 9.5 8.375 8.65625 9.1875C7.84375 10 7.59375 11 7.53125 12.125C7.46875 13.2812 7.46875 16.75 7.53125 17.9062C7.59375 19.0312 7.84375 20 8.65625 20.8438C9.5 21.6562 10.4688 21.9062 11.5938 21.9688C12.75 22.0312 16.2188 22.0312 17.375 21.9688C18.5 21.9062 19.5 21.6562 20.3125 20.8438C21.125 20 21.375 19.0312 21.4375 17.9062C21.5 16.75 21.5 13.2812 21.4375 12.125ZM19.9375 19.125C19.7188 19.75 19.2188 20.2188 18.625 20.4688C17.6875 20.8438 15.5 20.75 14.5 20.75C13.4688 20.75 11.2812 20.8438 10.375 20.4688C9.75 20.2188 9.28125 19.75 9.03125 19.125C8.65625 18.2188 8.75 16.0312 8.75 15C8.75 14 8.65625 11.8125 9.03125 10.875C9.28125 10.2812 9.75 9.8125 10.375 9.5625C11.2812 9.1875 13.4688 9.28125 14.5 9.28125C15.5 9.28125 17.6875 9.1875 18.625 9.5625C19.2188 9.78125 19.6875 10.2812 19.9375 10.875C20.3125 11.8125 20.2188 14 20.2188 15C20.2188 16.0312 20.3125 18.2188 19.9375 19.125Z" fill="white"/>
</svg>
