<svg width="18" height="12" viewBox="0 0 18 12" fill="none" xmlns="http://www.w3.org/2000/svg">
<g clip-path="url(#clip0_715_687)">
<path d="M17.27 10.67L13.15 6.24C13.04 6.12 13.04 5.93 13.15 5.8L17.27 1.49C17.47 1.28 17.82 1.42 17.82 1.71V10.45C17.82 10.74 17.47 10.88 17.27 10.67ZM0.55 1.49L4.67 5.8C4.79 5.92 4.79 6.11 4.67 6.24L0.55 10.67C0.35 10.88 0 10.74 0 10.45V1.71C0 1.42 0.35 1.28 0.55 1.49ZM5.36 7.02C5.48 6.89 5.7 6.88 5.82 7.02L6.83 8.08C7.43 8.58 8.15 8.83 8.89 8.83C9.63 8.83 10.4 8.57 11.02 8.04L11.99 7.02C12.12 6.89 12.33 6.89 12.45 7.02L16.48 11.35C16.67 11.55 16.52 11.88 16.25 11.88H1.56C1.28 11.88 1.14 11.55 1.33 11.35L5.36 7.02ZM16.53 0C16.81 0 16.95 0.34 16.76 0.54L10.33 7.28C9.51 7.96 8.32 7.96 7.55 7.32L1.06 0.54C0.87 0.34 1.01 0 1.29 0H16.52H16.53Z" fill="white"/>
</g>
<defs>
<clipPath id="clip0_715_687">
<rect width="17.82" height="11.88" fill="white"/>
</clipPath>
</defs>
</svg>
