<svg width="33" height="17" viewBox="0 0 33 17" fill="none" xmlns="http://www.w3.org/2000/svg">
<g clip-path="url(#clip0_742_833)">
<path d="M28.1671 4.87616C25.0508 2.05402 20.9073 0.5 16.5 0.5C12.0927 0.5 7.94924 2.05402 4.83292 4.87616C1.71622 7.69795 0 11.4498 0 15.4406V16.1605H5.0703V14.7206H1.61136C1.79112 11.6519 3.13667 8.71669 5.41601 6.42183L7.85628 8.63147L8.98058 7.61343L6.53954 5.40309C9.07239 3.34057 12.3147 2.12254 15.7049 1.95976V5.0911H17.2951V1.95976C20.6853 2.12254 23.9276 3.34057 26.4605 5.40309L24.0194 7.61343L25.1437 8.63147L27.584 6.42183C29.8629 8.71634 31.2085 11.6519 31.3886 14.7206H27.9293V16.1605H32.9996V15.4406C32.9996 11.4498 31.2834 7.69795 28.1667 4.87616H28.1671Z" fill="#404040"/>
<path d="M16.3633 13.5499C15.8467 13.464 15.3185 13.6045 14.9356 13.9336C14.6171 14.2069 14.4354 14.5767 14.4239 14.9739C14.4124 15.3711 14.5726 15.7488 14.8745 16.0371C15.1971 16.3449 15.6316 16.5004 16.0672 16.5004C16.4736 16.5004 16.8803 16.3651 17.1976 16.0928C17.5806 15.7637 17.7634 15.2938 17.6962 14.8222C18.393 14.153 23.5524 8.89969 23.3742 8.73622C23.1875 8.56545 17.3374 12.8032 16.3637 13.5503L16.3633 13.5499Z" fill="#404040"/>
</g>
<defs>
<clipPath id="clip0_742_833">
<rect width="33" height="16" fill="white" transform="translate(0 0.5)"/>
</clipPath>
</defs>
</svg>
