<svg width="29" height="29" viewBox="0 0 29 29" fill="none" xmlns="http://www.w3.org/2000/svg">
<g clip-path="url(#clip0_742_839)">
<path d="M24.5411 20.0304C20.7957 17.3428 21.0507 15.2002 21.3766 14.3309L22.1229 13.5885C22.548 13.1657 22.5007 12.7804 22.1229 12.4045L18.6514 8.94629L8.86035 18.6913L12.3319 22.1448C12.7475 22.5629 13.1301 22.5348 13.5221 22.1448L14.2589 21.4118C15.1279 21.0876 17.31 20.8244 19.9597 24.5834C21.9009 27.3415 25.0937 30.0103 27.5687 27.5529C29.9586 25.1002 27.4884 22.1401 24.5459 20.0257L24.5411 20.0304Z" stroke="#404040" stroke-width="2" stroke-linejoin="round"/>
<path d="M10.7593 20.5801L20.5503 10.8398" stroke="#404040" stroke-width="2" stroke-linejoin="round"/>
<path d="M24.6167 24.6255L25.056 25.0625" stroke="#404040" stroke-width="2" stroke-linecap="round" stroke-linejoin="round"/>
<path d="M18.6515 8.95093L11.8029 0.606146C11.6282 0.432296 11.3495 0.422899 11.1889 0.582653L1.51126 10.2149L4.82689 12.489L0.472168 11.8829L8.86044 18.6959" stroke="#404040" stroke-width="2" stroke-linejoin="round"/>
</g>
<defs>
<clipPath id="clip0_742_839">
<rect width="29" height="29" fill="white"/>
</clipPath>
</defs>
</svg>
