<svg width="15" height="15" viewBox="0 0 15 15" fill="none" xmlns="http://www.w3.org/2000/svg">
<g clip-path="url(#clip0_715_684)">
<path d="M10.77 14.67C4.83 14.67 0 9.83002 0 3.90002C0 3.21002 0.07 2.50002 0.21 1.81002C0.35 1.10002 0.94 0.530017 1.66 0.400017L3.75 0.0100168C4.16 -0.0699832 4.56 0.200017 4.65 0.610017L5.58 4.74002C5.66 5.12002 5.46 5.50002 5.11 5.64002L4.49 5.88002C4.41 5.91002 4.36 6.01002 4.39 6.09002C5.07 8.07002 6.62 9.61002 8.61 10.28C8.69 10.31 8.78 10.27 8.82 10.19L9.24 9.32002C9.4 8.99002 9.76 8.82002 10.12 8.90002L14.15 9.82002C14.56 9.91002 14.83 10.32 14.74 10.73L14.28 13.03C14.14 13.75 13.58 14.31 12.87 14.46C12.17 14.6 11.47 14.67 10.77 14.67Z" fill="white"/>
</g>
<defs>
<clipPath id="clip0_715_684">
<rect width="14.75" height="14.67" fill="white"/>
</clipPath>
</defs>
</svg>
