<svg width="63" height="63" viewBox="0 0 63 63" fill="none" xmlns="http://www.w3.org/2000/svg">
<path d="M17.4312 53.9655C23.0203 53.9655 27.1539 46.5744 28.3984 41.6149C28.5984 40.8084 28.9873 40.0741 29.5317 39.4842L36.1876 32.2737C37.7099 30.6246 37.7099 27.9643 36.1876 26.3151C34.6653 24.666 32.2096 24.666 30.6873 26.3151L23.8759 33.7062C23.787 33.8025 23.6981 33.8868 23.5981 33.959C22.4759 34.8377 20.8647 34.1155 20.4202 32.695L19.9424 31.1542" stroke="#73A800" stroke-width="2" stroke-linecap="round" stroke-linejoin="round"/>
<path d="M1.875 44.3353L5.20849 40.7241L20.7648 57.5767L17.4313 61.188" stroke="#73A800" stroke-width="2" stroke-linecap="round" stroke-linejoin="round"/>
<path d="M24.0982 20.2601H14.7422C12.6976 20.2601 10.9087 21.7648 10.4197 23.9196L6.31955 41.9278" stroke="#73A800" stroke-width="2" stroke-linecap="round" stroke-linejoin="round"/>
<path d="M50.7662 13.0376V4.61128C50.7662 2.61304 49.2772 1 47.4327 1H27.4318C25.5872 1 24.0983 2.61304 24.0983 4.61128V26.279" stroke="#73A800" stroke-width="2" stroke-linecap="round" stroke-linejoin="round"/>
<path d="M32.9874 44.3354H47.4325C49.277 44.3354 50.766 42.7223 50.766 40.7241V37.1128" stroke="#73A800" stroke-width="2" stroke-linecap="round" stroke-linejoin="round"/>
<path d="M32.9874 8.22266V11.8339" stroke="#73A800" stroke-width="2" stroke-linecap="round" stroke-linejoin="round"/>
<path d="M32.9874 16.6489V20.2602" stroke="#73A800" stroke-width="2" stroke-linecap="round" stroke-linejoin="round"/>
<path d="M44.0994 8.22266H37.4324V15.4452H44.0994V8.22266Z" stroke="#73A800" stroke-width="2" stroke-linecap="round" stroke-linejoin="round"/>
<path d="M57.4331 13.0376C63.3556 19.6823 63.3556 30.468 57.4331 37.1128" stroke="#73A800" stroke-width="2" stroke-linecap="round" stroke-linejoin="round"/>
<path d="M53.5443 17.4193C57.2445 21.6445 57.2445 28.5059 53.5443 32.7432" stroke="#73A800" stroke-width="2" stroke-linecap="round" stroke-linejoin="round"/>
<path d="M49.6551 21.6686C51.1329 23.5464 51.1329 26.592 49.6551 28.4819" stroke="#73A800" stroke-width="2" stroke-linecap="round" stroke-linejoin="round"/>
</svg>
