<svg width="29" height="29" viewBox="0 0 29 29" fill="none" xmlns="http://www.w3.org/2000/svg">
<circle cx="14.5" cy="14.5" r="14" fill="#404040" stroke="white"/>
<path d="M12.9295 13.3438V16.7188L15.9295 15.0312L12.9295 13.3438ZM21.117 9.5C21.117 8.6875 20.4295 8 19.617 8H8.61702C7.77327 8 7.11702 8.6875 7.11702 9.5V20.5C7.11702 21.3438 7.77327 22 8.61702 22H19.617C20.4295 22 21.117 21.3438 21.117 20.5V9.5ZM19.8045 15.0312C19.8045 15.0312 19.8045 16.875 19.5545 17.7812C19.4295 18.2812 19.0233 18.6562 18.5545 18.7812C17.6483 19 14.117 19 14.117 19C14.117 19 10.5545 19 9.64827 18.7812C9.17952 18.6562 8.77327 18.2812 8.64827 17.7812C8.42952 16.875 8.42952 15.0312 8.42952 15.0312C8.42952 15.0312 8.42952 13.1562 8.64827 12.2812C8.77327 11.7812 9.17952 11.375 9.64827 11.25C10.5545 11 14.117 11 14.117 11C14.117 11 17.6483 11 18.5545 11.25C19.0233 11.375 19.4295 11.7812 19.5545 12.2812C19.8045 13.1562 19.8045 15.0312 19.8045 15.0312Z" fill="white"/>
</svg>
