<?xml version="1.0" encoding="UTF-8"?>
<svg id="Layer_2" data-name="Layer 2" xmlns="http://www.w3.org/2000/svg" viewBox="0 0 176.98 147.37">
  <g id="_Ñëîé_1" data-name="Ñëîé 1">
    <g>
      <path d="m143.82,42.44c-5.38,8.33-12.52,12.51-21.41,12.51-6.19,0-11.38-2.49-15.56-7.46-4.17-4.98-6.26-10.29-6.26-15.93,0-21.53,8.41-31.55,34.53-31.55,8.35,0,20.89,4.45,28.29,14.8,7.41,10.35,13.57,25.61,13.57,36.9,0,34.7-10.2,69.29-62.25,95.64-11.61.39-13.37-3.13-8.45-11.22,31.66-16.88,48.44-39.48,48.44-68.26,0-14.79-3.64-23.27-10.91-25.42Z"/>
      <path d="m43.23,42.44c-5.38,8.33-12.52,12.51-21.41,12.51-6.19,0-11.38-2.49-15.56-7.46C2.09,42.5,0,37.19,0,31.55,0,10.02,8.41,0,34.53,0c8.35,0,20.89,4.45,28.29,14.8,7.41,10.35,13.57,25.61,13.57,36.9,0,34.7-10.2,69.29-62.25,95.64-11.61.39-13.37-3.13-8.45-11.22,31.66-16.88,48.44-39.48,48.44-68.26,0-14.79-3.64-23.27-10.91-25.42Z"/>
    </g>
  </g>
</svg>