<svg width="60" height="auto" viewBox="0 0 44 52" fill="none" xmlns="http://www.w3.org/2000/svg">
<path d="M15 44.9999C20.03 44.9999 23.75 39.0699 24.87 34.9499C25.05 34.2799 25.4 33.6699 25.89 33.1799L32.88 26.1899C34.25 24.8199 34.25 22.6099 32.88 21.2399C31.51 19.8699 29.3 19.8699 27.93 21.2399L20.8 28.3799C20.72 28.4599 20.64 28.5299 20.55 28.5899C19.54 29.3199 18.09 28.7199 17.69 27.5399L17.26 26.2599" stroke="#73A800" stroke-width="2" stroke-linecap="round" stroke-linejoin="round"/>
<path d="M1 37L4 34L18 48L15 51" stroke="#73A800" stroke-width="2" stroke-linecap="round" stroke-linejoin="round"/>
<path d="M17 17H12.58C10.74 17 9.13 18.25 8.69 20.04L5 35" stroke="#73A800" stroke-width="2" stroke-linecap="round" stroke-linejoin="round"/>
<path d="M23.5 45H42C42.55 45 43 44.55 43 44V2C43 1.45 42.55 1 42 1H18C17.45 1 17 1.45 17 2V22" stroke="#73A800" stroke-width="2" stroke-linecap="round" stroke-linejoin="round"/>
<path d="M43 9C38.58 9 35 5.42 35 1" stroke="#73A800" stroke-width="2" stroke-linecap="round" stroke-linejoin="round"/>
<path d="M17 9C21.42 9 25 5.42 25 1" stroke="#73A800" stroke-width="2" stroke-linecap="round" stroke-linejoin="round"/>
<path d="M43 37C38.58 37 35 40.58 35 45" stroke="#73A800" stroke-width="2" stroke-linecap="round" stroke-linejoin="round"/>
<path d="M33.4003 31.33C36.6903 29.99 39.0003 26.77 39.0003 23C39.0003 18.03 34.9703 14 30.0003 14C25.0303 14 21.2903 17.76 21.0303 22.48" stroke="#73A800" stroke-width="2" stroke-linecap="round" stroke-linejoin="round"/>
</svg>
