<svg width="63" height="auto" viewBox="0 0 311 386" fill="none" xmlns="http://www.w3.org/2000/svg">
<g>
<path d="M298.11 62.42L155.25 0L12.42 62.42C4.87 65.72 0 72.96 0 80.85V194.81C0 243.89 23.81 289.44 65.32 319.79L155.25 385.54L245.21 319.79C286.73 289.44 310.53 243.88 310.53 194.81V80.85C310.53 72.96 305.65 65.72 298.1 62.42H298.11ZM296.69 194.81C296.69 239.42 274.95 280.9 237.04 308.62L155.25 368.39L73.49 308.62C35.58 280.9 13.84 239.42 13.84 194.81V80.85C13.84 78.46 15.46 76.21 17.96 75.11L155.25 15.12L292.57 75.11C295.07 76.21 296.69 78.46 296.69 80.85V194.81Z" fill="#253147"/>
<path d="M273.65 83.98L155.26 32.25L36.8802 83.98C30.2102 86.9 25.9102 93.3 25.9102 100.3V194.36C25.9102 235.27 45.7302 273.22 80.3202 298.5L155.26 353.29L230.23 298.5C264.81 273.22 284.64 235.26 284.64 194.36V100.3C284.64 93.31 280.34 86.9 273.67 83.98H273.65ZM270.78 194.35C270.78 230.79 253.02 264.67 222.05 287.31L155.26 336.12L88.4802 287.31C57.5102 264.67 39.7502 230.79 39.7502 194.35V100.29C39.7502 98.8 40.8002 97.37 42.4302 96.67L155.26 47.36L268.1 96.67C269.73 97.37 270.78 98.8 270.78 100.29V194.35Z" fill="#253147"/>
<path d="M223.75 158.28H188.75V123.28C188.75 119.25 185.47 115.96 181.43 115.96H128.37C124.33 115.96 121.05 119.25 121.05 123.28V158.28H86.0505C82.0205 158.28 78.7305 161.56 78.7305 165.6V218.66C78.7305 222.7 82.0205 225.98 86.0505 225.98H121.05V260.98C121.05 265.01 124.33 268.3 128.37 268.3H181.43C185.47 268.3 188.75 265.01 188.75 260.98V225.98H223.75C227.78 225.98 231.07 222.7 231.07 218.66V165.6C231.07 161.56 227.78 158.28 223.75 158.28ZM217.22 212.12H174.91V254.43H134.91V212.12H92.6005V172.12H134.91V129.81H174.91V172.12H217.22V212.12Z" fill="#253147"/>
</g>
<defs>
<clipPath>
<rect width="310.53" height="385.54" fill="white"/>
</clipPath>
</defs>
</svg>
