<svg width="60" height="53" viewBox="0 0 60 53" fill="none" xmlns="http://www.w3.org/2000/svg">
<path d="M45.4304 16.62C45.4304 25.25 29.8104 46.07 29.8104 46.07C29.8104 46.07 14.1904 25.24 14.1904 16.62C14.1904 8 21.1904 1 29.8104 1C38.4304 1 45.4304 7.99 45.4304 16.62Z" stroke="#73A800" stroke-width="2" stroke-linecap="round" stroke-linejoin="round"/>
<path d="M36.4304 16.83C36.4304 20.49 33.4704 23.45 29.8104 23.45C26.1504 23.45 23.1904 20.49 23.1904 16.83C23.1904 13.17 26.1504 10.21 29.8104 10.21C33.4704 10.21 36.4304 13.17 36.4304 16.83Z" stroke="#73A800" stroke-width="2" stroke-linecap="round" stroke-linejoin="round"/>
<path d="M21.58 40.75H10.2L1 51.4L58.71 51.43L49.44 40.75H38.12" stroke="#73A800" stroke-width="2" stroke-linecap="round" stroke-linejoin="round"/>
</svg>
