<svg width="63" height="auto" viewBox="0 0 79 93" fill="none" xmlns="http://www.w3.org/2000/svg">
<path d="M55.8796 20.5801H12.6096C11.4796 20.5801 10.5596 21.5001 10.5596 22.6301V41.6301C10.5596 42.7601 11.4796 43.6801 12.6096 43.6801H55.8796C57.0096 43.6801 57.9296 42.7601 57.9296 41.6301V22.6301C57.9296 21.5001 57.0096 20.5801 55.8796 20.5801ZM53.8296 39.5801H14.6596V24.6801H53.8296V39.5801Z" fill="#73A800"/>
<path d="M55.8796 64.99H12.6096C11.4796 64.99 10.5596 65.91 10.5596 67.04C10.5596 68.17 11.4796 69.09 12.6096 69.09H55.8796C57.0096 69.09 57.9296 68.17 57.9296 67.04C57.9296 65.91 57.0096 64.99 55.8796 64.99Z" fill="#73A800"/>
<path d="M55.8796 77.21H12.6096C11.4796 77.21 10.5596 78.13 10.5596 79.26C10.5596 80.39 11.4796 81.31 12.6096 81.31H55.8796C57.0096 81.31 57.9296 80.39 57.9296 79.26C57.9296 78.13 57.0096 77.21 55.8796 77.21Z" fill="#73A800"/>
<path d="M55.8796 52.77H12.6096C11.4796 52.77 10.5596 53.69 10.5596 54.82C10.5596 55.95 11.4796 56.87 12.6096 56.87H55.8796C57.0096 56.87 57.9296 55.95 57.9296 54.82C57.9296 53.69 57.0096 52.77 55.8796 52.77Z" fill="#73A800"/>
<path d="M68.54 0H19.9C14.45 0 10.02 4.38 10.02 9.75V9.95H2.05C0.92 9.95 0 10.87 0 12V82.47C0 87.85 4.43 92.22 9.88 92.22H68.54C73.99 92.22 78.42 87.84 78.42 82.47V9.75C78.42 4.37 73.99 0 68.54 0ZM4.1 82.48V14.05H64.37V88.13H9.88C6.69 88.13 4.09 85.59 4.09 82.48H4.1ZM74.33 82.48C74.33 85.6 71.73 88.13 68.54 88.13H68.46V12C68.46 10.87 67.54 9.95 66.41 9.95H14.12V9.75C14.12 6.63 16.72 4.1 19.91 4.1H68.55C71.74 4.1 74.33 6.64 74.33 9.75V82.47V82.48Z" fill="#73A800"/>
</svg>
