<?xml version="1.0" encoding="UTF-8"?>
<svg id="Layer_2" data-name="Layer 2" xmlns="http://www.w3.org/2000/svg" viewBox="0 0 176.98 147.37">
  <g id="_Ñëîé_1" data-name="Ñëîé 1">
    <path d="m33.16,104.93c5.38-8.33,12.52-12.51,21.41-12.51,6.19,0,11.38,2.49,15.56,7.46,4.17,4.98,6.26,10.29,6.26,15.93,0,21.53-8.41,31.55-34.53,31.55-8.35,0-20.89-4.45-28.29-14.8C6.15,122.21,0,106.96,0,95.66,0,60.96,10.2,26.37,62.25.03c11.61-.39,13.37,3.13,8.45,11.22C39.04,28.13,22.25,50.73,22.25,79.51c0,14.79,3.64,23.27,10.91,25.42Z"/>
    <path d="m133.75,104.93c5.38-8.33,12.52-12.51,21.41-12.51,6.19,0,11.38,2.49,15.56,7.46,4.17,4.98,6.26,10.29,6.26,15.93,0,21.53-8.41,31.55-34.53,31.55-8.35,0-20.89-4.45-28.29-14.8-7.41-10.35-13.57-25.61-13.57-36.9C100.59,60.96,110.79,26.37,162.84.03c11.61-.39,13.37,3.13,8.45,11.22-31.66,16.88-48.44,39.48-48.44,68.26,0,14.79,3.63,23.27,10.91,25.42Z"/>
  </g>
</svg>